<svg xmlns="http://www.w3.org/2000/svg" xmlns:xlink="http://www.w3.org/1999/xlink" width="40" height="40" viewBox="0 0 10.58 10.58"><defs><linearGradient id="b"><stop offset="0" stop-color="navy"/><stop offset="1" stop-color="navy" stop-opacity="0"/></linearGradient><linearGradient id="a"><stop offset="0" stop-color="#9cafff"/><stop offset="1" stop-color="#9cafff" stop-opacity="0"/></linearGradient><linearGradient xlink:href="#a" id="d" x1="104.92" y1="146.62" x2="113.57" y2="136.38" gradientUnits="userSpaceOnUse" gradientTransform="matrix(.70556 0 0 .70556 29.13 40.05)"/><linearGradient xlink:href="#b" id="c" x1="104.92" y1="146.62" x2="113.57" y2="136.38" gradientUnits="userSpaceOnUse" gradientTransform="matrix(.70556 0 0 .70556 29.13 40.05)"/><radialGradient xlink:href="#a" id="e" cx="115.63" cy="151.96" fx="115.63" fy="151.96" r="11.18" gradientTransform="matrix(1.12791 -.02015 .01591 .89057 -28.63 8.31)" gradientUnits="userSpaceOnUse"/></defs><g transform="translate(-98.92 -136.03)"><rect rx="1.99" width="10.09" height="10.09" x="99.16" y="136.27" ry="1.99" opacity=".85" fill="url(#c)" stroke="url(#d)" stroke-width=".49" stroke-linejoin="round" stroke-miterlimit="2.7" stroke-opacity=".69" paint-order="markers fill stroke"/><path d="M104.22 145.17c-2.58 0-3.98-1.61-3.98-3.7 0-2.22 1.58-4 4.4-4 2.05 0 3.54 1.33 3.54 3.17 0 2.88-3.42 3.64-3.25 2a1.5 1.5 0 01-1.34.78c-.83 0-1.35-.61-1.35-1.59 0-1.47.97-2.71 2.11-2.71.55 0 .93.29 1.09.73l.15-.54h.77l-.76 2.82c-.22.88.44.9 1.03.43 1.1-.85 1.16-3.08-.33-4.01-1.6-.96-5.22-.37-5.22 2.87 0 1.86 1.3 3.1 3.25 3.1 1.13 0 1.83-.3 2.4-.64l.4.56c-.57.32-1.48.73-2.9.73zm-.77-4.73a3.37 3.37 0 00-.4 1.46c0 1.2 1.17 1.2 1.75.08.23-.46.38-1.05.38-1.5 0-.96-1.15-1.13-1.73-.04z" fill="url(#e)"/></g></svg>