<svg xmlns="http://www.w3.org/2000/svg" xmlns:xlink="http://www.w3.org/1999/xlink" viewBox="0 0 10.58 10.58" height="40" width="40"><defs><linearGradient id="c"><stop offset="0" stop-color="#9cafff"/><stop offset="1" stop-color="#9cafff" stop-opacity="0"/></linearGradient><linearGradient id="b"><stop offset="0" stop-color="navy"/><stop offset="1" stop-color="navy" stop-opacity="0"/></linearGradient><linearGradient id="a"><stop offset="0" stop-color="#9cafff"/><stop offset="1" stop-color="#9cafff" stop-opacity="0"/></linearGradient><linearGradient gradientTransform="matrix(.70556 0 0 .70556 29.13 40.05)" gradientUnits="userSpaceOnUse" y2="136.38" x2="113.57" y1="146.62" x1="104.92" id="e" xlink:href="#a"/><linearGradient gradientTransform="matrix(.70556 0 0 .70556 29.13 40.05)" gradientUnits="userSpaceOnUse" y2="136.38" x2="113.57" y1="146.62" x1="104.92" id="d" xlink:href="#b"/><radialGradient gradientUnits="userSpaceOnUse" gradientTransform="matrix(.59203 -.00876 .01144 .77357 -8.83 -10.93)" r="12.01" fy="21.24" fx="23.45" cy="21.24" cx="23.45" id="f" xlink:href="#c"/></defs><rect ry="1.99" y="136.27" x="99.16" height="10.09" width="10.09" rx="1.99" opacity=".85" fill="url(#d)" stroke="url(#e)" stroke-width=".49" stroke-linejoin="round" stroke-miterlimit="2.7" stroke-opacity=".69" paint-order="markers fill stroke" transform="translate(-98.92 -136.03)"/><path style="mix-blend-mode:normal" d="M2.98 3.3c-.37 0-.67.3-.67.67V8.6c0 .36.3.66.67.66h2.64c.37 0 .66-.3.66-.66V3.97c0-.37-.3-.66-.66-.66zm.66 4.97h-.66v-.33h.66zm0-.66h-.66v-.33h.66zm.99.66h-.66v-.33h.66zm0-.66h-.66v-.33h.66zm1 .66h-.67v-.33h.66zm0-.66h-.67v-.33h.66zm0-1H2.97V4.3h2.64zm0-3.86a1.21 1.21 0 011.21 1.22h.52a1.73 1.73 0 00-1.74-1.73zm0-.9a2.11 2.11 0 012.11 2.12h.53a2.64 2.64 0 00-2.65-2.65z" fill="url(#f)"/></svg>