<svg xmlns="http://www.w3.org/2000/svg" xmlns:xlink="http://www.w3.org/1999/xlink" width="40" height="40" viewBox="0 0 10.58 10.58"><defs><linearGradient id="b"><stop offset="0" stop-color="navy"/><stop offset="1" stop-color="navy" stop-opacity="0"/></linearGradient><linearGradient id="a"><stop offset="0" stop-color="#9cafff"/><stop offset="1" stop-color="#9cafff" stop-opacity="0"/></linearGradient><linearGradient xlink:href="#a" id="d" x1="104.92" y1="146.62" x2="113.57" y2="136.38" gradientUnits="userSpaceOnUse" gradientTransform="matrix(.70556 0 0 .70556 29.13 40.05)"/><linearGradient xlink:href="#b" id="c" x1="104.92" y1="146.62" x2="113.57" y2="136.38" gradientUnits="userSpaceOnUse" gradientTransform="matrix(.70556 0 0 .70556 29.13 40.05)"/><radialGradient gradientUnits="userSpaceOnUse" gradientTransform="matrix(2.49689 0 0 2.43829 -29.94 -28.77)" r="15.5" fy="20" fx="20" cy="20" cx="20" id="e" xlink:href="#a"/></defs><g transform="translate(-98.92 -136.03)" stroke-miterlimit="2.7"><rect rx="1.99" width="10.09" height="10.09" x="99.16" y="136.27" ry="1.99" opacity=".85" fill="url(#c)" stroke="url(#d)" stroke-width=".49" stroke-linejoin="round" stroke-opacity=".69" paint-order="markers fill stroke"/><g transform="matrix(.26458 0 0 .26458 98.92 136.03)" fill="url(#e)"><path d="M27.98 34.57c.4.34.92.42 1.38.21.47-.2.8-.68.9-1.25 1.1-6.08 3.73-21.48 4.72-27.01a1.3 1.3 0 00-.33-1.13.88.88 0 00-1-.21C28.43 7.49 12.29 14.7 5.69 17.62c-.42.18-.7.66-.68 1.19.02.52.31.98.74 1.14 2.96 1.05 6.84 2.52 6.84 2.52s1.82 6.53 2.77 9.85c.11.42.39.75.75.86.36.11.74 0 1.01-.3l3.87-4.36s4.47 3.9 7 6.05zM14.22 21.64l2.1 8.25.46-5.22 12.73-13.69a.47.47 0 00.04-.56c-.1-.17-.31-.21-.47-.1L14.22 21.65z" style="mix-blend-mode:normal" clip-rule="evenodd" fill-rule="evenodd"/></g></g></svg>