<svg xmlns="http://www.w3.org/2000/svg" xmlns:xlink="http://www.w3.org/1999/xlink" width="40" height="40" viewBox="0 0 10.58 10.58"><defs><linearGradient id="b"><stop offset="0" stop-color="navy"/><stop offset="1" stop-color="navy" stop-opacity="0"/></linearGradient><linearGradient id="a"><stop offset="0" stop-color="#9cafff"/><stop offset="1" stop-color="#9cafff" stop-opacity="0"/></linearGradient><linearGradient xlink:href="#a" id="d" x1="104.92" y1="146.62" x2="117.52" y2="132.23" gradientUnits="userSpaceOnUse" gradientTransform="matrix(.70556 0 0 .70556 29.13 21)"/><linearGradient xlink:href="#b" id="c" x1="104.92" y1="146.62" x2="117.52" y2="132.23" gradientUnits="userSpaceOnUse" gradientTransform="matrix(.70556 0 0 .70556 29.13 21)"/><radialGradient xlink:href="#a" id="e" cx="136" cy="164.89" fx="136" fy="164.89" r="17.51" gradientTransform="matrix(.58342 0 0 .55041 24.87 31.51)" gradientUnits="userSpaceOnUse"/></defs><g transform="translate(-98.92 -116.98)"><rect rx="1.99" width="10.09" height="10.09" x="99.16" y="117.22" ry="1.99" opacity=".85" fill="url(#c)" stroke="url(#d)" stroke-width=".49" stroke-linejoin="round" stroke-miterlimit="2.7" stroke-opacity=".69" paint-order="markers fill stroke"/><path d="M100.26 126.24l.56-2.04a3.92 3.92 0 016.19-4.75 3.94 3.94 0 01-4.66 6.24zm2.18-1.26a3.28 3.28 0 10-.9-.88l-.34 1.2zm3.77-1.8c-.03-.05-.1-.07-.19-.12-.1-.05-.58-.29-.67-.32-.1-.04-.16-.05-.22.05l-.31.38c-.06.07-.12.08-.22.03s-.41-.16-.79-.5c-.29-.25-.49-.57-.54-.67-.06-.1-.01-.15.04-.2l.15-.17c.05-.06.06-.1.1-.17.03-.06.01-.12-.01-.17-.03-.05-.23-.53-.3-.73-.09-.2-.17-.17-.23-.17h-.19a.36.36 0 00-.26.12c-.09.1-.34.34-.34.82 0 .48.35.95.4 1.02.05.06.7 1.05 1.68 1.48.23.1.41.16.56.2.23.08.45.07.62.05.19-.03.58-.24.66-.47.08-.23.08-.43.06-.47z" fill="url(#e)"/></g></svg>