<svg xmlns="http://www.w3.org/2000/svg" xmlns:xlink="http://www.w3.org/1999/xlink" width="40" height="40" viewBox="0 0 10.58 10.58"><defs><linearGradient id="b"><stop offset="0" stop-color="navy"/><stop offset="1" stop-color="navy" stop-opacity="0"/></linearGradient><linearGradient id="a"><stop offset="0" stop-color="#9cafff"/><stop offset="1" stop-color="#9cafff" stop-opacity="0"/></linearGradient><linearGradient xlink:href="#a" id="d" x1="104.92" y1="146.62" x2="113.57" y2="136.38" gradientUnits="userSpaceOnUse" gradientTransform="matrix(.70556 0 0 .70556 29.13 21)"/><linearGradient xlink:href="#b" id="c" x1="104.92" y1="146.62" x2="113.57" y2="136.38" gradientUnits="userSpaceOnUse" gradientTransform="matrix(.70556 0 0 .70556 29.13 21)"/><radialGradient xlink:href="#a" id="e" cx="12" cy="12" fx="12" fy="12" r="11.38" gradientTransform="matrix(2.47493 -.09439 .09025 2.36656 -18.78 -15.27)" gradientUnits="userSpaceOnUse"/><radialGradient xlink:href="#a" id="f" gradientUnits="userSpaceOnUse" gradientTransform="matrix(2.47493 -.09439 .09025 2.36656 -18.78 -15.27)" cx="12" cy="12" fx="12" fy="12" r="11.38"/></defs><g transform="translate(-98.92 -116.98)"><rect rx="1.99" width="10.09" height="10.09" x="99.16" y="117.22" ry="1.99" opacity=".85" fill="url(#c)" stroke="url(#d)" stroke-width=".49" stroke-linejoin="round" stroke-miterlimit="2.7" stroke-opacity=".69" paint-order="markers fill stroke"/><path d="M12.9 13.74s.42.04.65-.24l.45-.57c.21-.28.73-.45 1.25-.17.67.38 1.55.98 2.14 1.54.33.28.41.69.19 1.12v.01c-.24.41-.55.8-.94 1.15-.45.37-.95.59-1.5.41v-.01c-.98-.28-3.3-1.47-4.8-2.65a15.2 15.2 0 01-4.63-6.78l-.02-.01c-.17-.54.04-1.05.4-1.49h.02c.35-.4.73-.7 1.14-.94h.01c.43-.23.84-.15 1.12.18.37.38 1.06 1.3 1.54 2.15.29.51.1 1.03-.17 1.25l-.56.45c-.29.23-.25.65-.25.65s.83 3.16 3.95 3.96zm4.9-2.61a.3.3 0 01-.3-.3 5.87 5.87 0 00-1.64-4.33 5.62 5.62 0 00-4.03-1.6.3.3 0 01-.3-.3c0-.17.14-.3.3-.3 1.77 0 3.27.6 4.46 1.76a6.45 6.45 0 011.81 4.76.3.3 0 01-.3.3zm-1.6-.63a.3.3 0 01-.3-.3 3.5 3.5 0 00-.9-2.57 3.77 3.77 0 00-2.65-1.15.3.3 0 01-.28-.33.3.3 0 01.32-.28c1.3.1 2.32.55 3.05 1.35s1.1 1.8 1.07 2.99a.3.3 0 01-.3.3zm-1.55-.52a.3.3 0 01-.3-.29c-.06-1.03-.54-1.53-1.53-1.58a.3.3 0 11.03-.61c1.3.07 2.03.82 2.1 2.16a.3.3 0 01-.29.32zm6.81 3.47c-.6 4.88-4.17 5.19-4.83 5.4-.28.09-2.88.73-6.15.52 0 0-2.44 2.94-3.2 3.7-.12.13-.26.17-.35.15-.13-.03-.17-.19-.17-.41l.02-4.02c-4.76-1.32-4.48-6.3-4.43-8.9.06-2.6.55-4.73 2-6.17 2.61-2.36 7.99-2 7.99-2 4.54.01 6.71 1.38 7.22 1.84 1.67 1.43 2.53 4.86 1.9 9.9zm-.65-11.11c-.6-.55-3-2.3-8.37-2.32 0 0-6.33-.39-9.42 2.45C1.3 4.18.7 6.7.63 9.8.57 12.93.5 18.77 6.12 20.37v2.41s-.03.98.6 1.18c.79.24 1.25-.5 1.99-1.3l1.4-1.58c3.85.32 6.8-.42 7.15-.53.77-.25 5.17-.81 5.89-6.65.74-6.03-.36-9.83-2.34-11.55z" fill="url(#f)" transform="matrix(.33072 0 0 .33072 100.24 118.3)" clip-rule="evenodd" fill-rule="evenodd"/></g></svg>